<svg width="20" height="20" viewBox="0 0 20 20" fill="none" xmlns="http://www.w3.org/2000/svg">
<path fill-rule="evenodd" clip-rule="evenodd" d="M10.0033 4.16675C12.9691 4.16675 15.4258 6.39175 15.7899 9.26008C16.5156 9.43753 17.1609 9.85314 17.6225 10.4405C18.0842 11.0278 18.3356 11.753 18.3366 12.5001C18.3366 14.3384 16.8416 15.8334 15.0033 15.8334H13.3366V14.1667H15.0033C15.9224 14.1667 16.6699 13.4192 16.6699 12.5001C16.6699 11.5809 15.9224 10.8334 15.0033 10.8334H14.1699V10.0001C14.1699 7.70258 12.3008 5.83341 10.0033 5.83341C8.24826 5.83341 6.79409 6.89425 6.20826 8.60342L6.04825 9.06841L5.56409 9.15341C4.33576 9.36925 3.33659 10.4967 3.33659 11.6667C3.33659 13.0451 4.45826 14.1667 5.83659 14.1667H6.66992V15.8334H5.83659C3.53909 15.8334 1.66992 13.9642 1.66992 11.6667C1.66992 9.85008 3.01076 8.16008 4.80076 7.62508C5.71159 5.50925 7.70659 4.16675 10.0033 4.16675ZM9.16992 8.33341H10.8366V11.6667H13.3366L10.0033 15.8334L6.66992 11.6667H9.16992V8.33341Z" fill="white"/>
</svg>
