<svg width="20" height="20" viewBox="0 0 20 20" fill="none" xmlns="http://www.w3.org/2000/svg">
<path d="M5.83332 14.1673C6.79329 14.166 7.72345 13.8338 8.46698 13.2266C9.21051 12.6194 9.72192 11.7743 9.91499 10.834H11.6667V12.5007H13.3333V10.834H15V13.334H16.6667V10.834H17.5V9.16732H9.91499C9.72192 8.22696 9.21051 7.38194 8.46698 6.77473C7.72345 6.16752 6.79329 5.83527 5.83332 5.83398C3.53582 5.83398 1.66666 7.70315 1.66666 10.0007C1.66666 12.2982 3.53582 14.1673 5.83332 14.1673ZM5.83332 7.50065C7.21166 7.50065 8.33332 8.62232 8.33332 10.0007C8.33332 11.379 7.21166 12.5007 5.83332 12.5007C4.45499 12.5007 3.33332 11.379 3.33332 10.0007C3.33332 8.62232 4.45499 7.50065 5.83332 7.50065Z" fill="white"/>
</svg>
