<svg width="20" height="20" viewBox="0 0 20 20" fill="none" xmlns="http://www.w3.org/2000/svg">
<path d="M17.3475 9.32102C17.1511 8.36131 16.7674 7.44975 16.2183 6.63852C15.6788 5.84042 14.9914 5.15303 14.1933 4.61352C13.382 4.06462 12.4705 3.68093 11.5108 3.48435C11.0067 3.38212 10.4935 3.33186 9.97917 3.33435V1.66602L6.66667 4.16602L9.97917 6.66602V5.00102C10.3825 4.99935 10.7858 5.03768 11.175 5.11768C11.9209 5.27052 12.6293 5.56869 13.26 5.99518C13.882 6.41455 14.4173 6.94987 14.8367 7.57185C15.4878 8.53454 15.835 9.67048 15.8333 10.8327C15.8332 11.6126 15.6774 12.3846 15.375 13.1035C15.2279 13.4498 15.0482 13.7813 14.8383 14.0935C14.6276 14.4038 14.3882 14.6937 14.1233 14.9593C13.3167 15.7645 12.2926 16.3168 11.1767 16.5485C10.4006 16.7052 9.60106 16.7052 8.825 16.5485C8.0788 16.3955 7.37003 16.0971 6.73917 15.6702C6.1179 15.2512 5.58316 14.7164 5.16417 14.0952C4.5138 13.1315 4.16642 11.9953 4.16667 10.8327H2.5C2.50089 12.3274 2.94741 13.788 3.7825 15.0277C4.32237 15.8245 5.00905 16.5111 5.80583 17.051C7.04385 17.8889 8.50509 18.3354 10 18.3327C10.5077 18.3326 11.0142 18.2815 11.5117 18.1802C12.4706 17.9822 13.3816 17.5986 14.1933 17.051C14.5919 16.7825 14.9634 16.4757 15.3025 16.1352C15.6421 15.7947 15.949 15.423 16.2192 15.0252C17.0564 13.7875 17.5026 12.3269 17.5 10.8327C17.5 10.325 17.4489 9.81852 17.3475 9.32102V9.32102Z" fill="white"/>
</svg>
