<svg width="20" height="20" viewBox="0 0 20 20" fill="none" xmlns="http://www.w3.org/2000/svg">
<path d="M17.3475 9.3215C17.1511 8.3618 16.7674 7.45024 16.2183 6.639C15.6788 5.8409 14.9914 5.15352 14.1933 4.614C13.382 4.06511 12.4705 3.68142 11.5108 3.48484C11.0067 3.38261 10.4935 3.33235 9.97917 3.33484V1.6665L6.66667 4.1665L9.97917 6.6665V5.0015C10.3825 4.99984 10.7858 5.03817 11.175 5.11817C11.9209 5.27101 12.6293 5.56918 13.26 5.99567C13.882 6.41504 14.4173 6.95036 14.8367 7.57234C15.4878 8.53503 15.835 9.67097 15.8333 10.8332C15.8332 11.6131 15.6774 12.3851 15.375 13.104C15.2279 13.4503 15.0482 13.7818 14.8383 14.094C14.6276 14.4043 14.3882 14.6942 14.1233 14.9598C13.3167 15.765 12.2926 16.3173 11.1767 16.549C10.4006 16.7057 9.60106 16.7057 8.825 16.549C8.0788 16.396 7.37003 16.0976 6.73917 15.6707C6.1179 15.2517 5.58316 14.7169 5.16417 14.0957C4.5138 13.132 4.16642 11.9958 4.16667 10.8332H2.5C2.50089 12.3279 2.94741 13.7885 3.7825 15.0282C4.32237 15.825 5.00905 16.5116 5.80583 17.0515C7.04385 17.8894 8.50509 18.3359 10 18.3332C10.5077 18.3331 11.0142 18.282 11.5117 18.1807C12.4706 17.9827 13.3816 17.5991 14.1933 17.0515C14.5919 16.7829 14.9634 16.4762 15.3025 16.1357C15.6421 15.7951 15.949 15.4235 16.2192 15.0257C17.0564 13.788 17.5026 12.3274 17.5 10.8332C17.5 10.3254 17.4489 9.81901 17.3475 9.3215V9.3215Z" fill="white"/>
</svg>
